P3
10 10
255
0 0 0  0 0 0  0 0 0  0 0 0  0 0 0  25 201 25  0 0 0  0 0 0  0 0 0  0 0 0
0 0 0  0 0 0  0 0 0  0 0 0  0 0 0  0 0 0  0 0 0  0 0 0  0 0 0  0 0 0
25 25 25  26 26 26  27 27 27  28 28 28  28 28 28  200 25 25  28 28 28  28 28 28  27 27 27  26 26 26
66 66 66  69 69 69  72 72 72  75 75 75  77 77 77  59 7 7  77 77 77  75 75 75  72 72 72  69 69 69
111 111 111  118 118 118  124 124 124  129 129 129  133 133 133  134 134 134  133 133 133  129 129 129  124 124 124  118 118 118
155 155 155  165 165 165  174 174 174  182 182 182  187 187 187  188 188 188  187 187 187  182 182 182  174 174 174  165 165 165
190 190 190  202 202 202  212 212 212  220 220 220  226 226 226  228 228 228  226 226 226  220 220 220  212 212 212  202 202 202
214 214 214  224 224 224  234 234 234  241 241 241  246 246 246  248 248 248  246 246 246  241 241 241  234 234 234  224 224 224
226 226 226  235 235 235  243 243 243  249 249 249  253 253 253  254 254 254  253 253 253  249 249 249  243 243 243  235 235 235
232 232 232  239 239 239  245 245 245  250 250 250  253 253 253  254 254 254  253 253 253  250 250 250  245 245 245  239 239 239
